<svg width="24" height="24" viewBox="0 0 24 24" fill="none" xmlns="http://www.w3.org/2000/svg">
<path d="M20.3478 0H3.65218C1.63824 0 0 1.63824 0 3.65218V15.1304C0 17.1443 1.63824 18.7826 3.65218 18.7826H14.9144L19.9795 23.8476C20.0786 23.9467 20.2121 24 20.3478 24C20.4146 24 20.4835 23.9874 20.5471 23.9603C20.7423 23.8799 20.8696 23.689 20.8696 23.4782V18.745C22.6372 18.4914 24 16.9669 24 15.1304V3.65218C24 1.63824 22.3617 0 20.3478 0ZM12 15.6521C11.137 15.6521 10.4347 14.9499 10.4347 14.0869C10.4347 13.2239 11.137 12.5217 12 12.5217C12.8629 12.5217 13.5652 13.2239 13.5652 14.0869C13.5652 14.9499 12.8629 15.6521 12 15.6521ZM14.0828 4.80833L13.633 9.96517C13.5735 10.8094 12.8546 11.4782 12 11.4782C11.136 11.4782 10.4181 10.8093 10.3586 9.95578L9.91822 4.8146C9.88691 4.37634 10.0372 3.94644 10.3314 3.63027C10.6278 3.31199 11.0452 3.13043 11.4782 3.13043H12.5217C12.9547 3.13043 13.3722 3.31199 13.6685 3.63027C13.9627 3.94747 14.1141 4.37634 14.0828 4.80833Z" fill="#DF4D4D"/>
</svg>
