<svg width="19" height="19" viewBox="0 0 19 19" fill="none" xmlns="http://www.w3.org/2000/svg">
<g clip-path="url(#clip0)">
<path d="M9.50078 0C4.25422 0 0.000976562 4.25337 0.000976562 9.49975C0.000976562 14.7461 4.25422 19 9.50072 19C14.7472 19 19.0008 14.7463 19.0008 9.49975C19.0008 4.25318 14.7473 0 9.50078 0ZM10.1568 10.6614C10.1563 10.6864 10.1526 10.7113 10.1491 10.7363C10.1466 10.7551 10.1455 10.7743 10.1412 10.7927C10.137 10.8119 10.1297 10.8308 10.1235 10.85C10.1161 10.8732 10.1092 10.8963 10.0995 10.9182C10.0976 10.922 10.097 10.926 10.0954 10.9298C10.081 10.9604 10.0645 10.989 10.0463 11.0161C10.0451 11.0177 10.0436 11.0194 10.0425 11.021C10.0218 11.0514 9.99815 11.079 9.97332 11.1049C9.96641 11.112 9.95938 11.1184 9.9521 11.1251C9.93025 11.146 9.90726 11.165 9.88281 11.1825C9.87528 11.1879 9.86806 11.1936 9.86014 11.1989C9.82879 11.2194 9.79592 11.2374 9.76172 11.2523C9.75431 11.2555 9.74658 11.2575 9.73905 11.2605C9.71017 11.2716 9.68091 11.2809 9.6507 11.2879C9.63987 11.2905 9.62916 11.2929 9.61814 11.2948C9.57938 11.3019 9.54012 11.3068 9.50034 11.3068C9.4923 11.3068 9.48407 11.3043 9.47602 11.304C9.43789 11.3025 9.40015 11.2996 9.36386 11.2918C9.35252 11.2894 9.34137 11.2844 9.33004 11.2813C9.29622 11.2721 9.26316 11.2619 9.23162 11.2478C9.22801 11.246 9.22421 11.2457 9.2206 11.244L5.57796 9.52584C5.24976 9.37112 5.10916 8.97952 5.26388 8.65133C5.41861 8.32332 5.8102 8.18253 6.1384 8.33726L8.84376 9.61305V3.94246C8.84376 3.57962 9.13795 3.28544 9.50078 3.28544C9.86362 3.28544 10.1578 3.57962 10.1578 3.94246V10.6496H10.1579C10.1579 10.6535 10.1568 10.6574 10.1568 10.6614Z" fill="#7D7D7D"/>
</g>
<defs>
<clipPath id="clip0">
<rect width="19" height="19" fill="white"/>
</clipPath>
</defs>
</svg>
