<svg width="19" height="19" viewBox="0 0 19 19" fill="none" xmlns="http://www.w3.org/2000/svg">
<path d="M17.6744 4.39535C16.1395 1.69767 13.3023 0 10.1628 0H8.5814C5.46512 0 2.60465 1.69767 1.09302 4.39535C0.372093 5.65116 0 7.09302 0 8.5814V13.907C0.139535 16.7442 2.34884 18.9767 5.09302 18.9767C5.55814 18.9767 5.90698 18.6279 5.90698 18.1628V9.09302C5.90698 8.62791 5.55814 8.27907 5.09302 8.27907C3.74419 8.27907 2.53488 8.83721 1.60465 9.74419V8.55814C1.60465 7.37209 1.90698 6.2093 2.48837 5.16279C3.72093 2.97674 6.04651 1.5814 8.60465 1.5814H10.186C12.6977 1.5814 15.0465 2.95349 16.2791 5.16279C16.8605 6.2093 17.1628 7.39535 17.1628 8.55814V9.74419C16.2558 8.83721 15.0233 8.27907 13.6744 8.27907C13.2093 8.27907 12.8605 8.62791 12.8605 9.09302V18.186C12.8605 18.6512 13.2093 19 13.6744 19C16.3953 19 18.6279 16.7442 18.7674 13.907V8.5814C18.7674 7.11628 18.3953 5.67442 17.6744 4.39535Z" fill="#7D7D7D"/>
</svg>
