<svg width="13" height="17" viewBox="0 0 13 17" fill="none" xmlns="http://www.w3.org/2000/svg">
<path d="M6.49973 8.31412C8.38984 8.31412 9.92222 6.45296 9.92222 4.15708C9.92222 1.86116 9.41912 0 6.49973 0C3.58035 0 3.07715 1.86116 3.07715 4.15708C3.07715 6.45296 4.60953 8.31412 6.49973 8.31412Z" fill="#BCBCBC"/>
<path d="M0.0353408 14.6615C0.0347581 14.5216 0.0341754 14.6221 0.0353408 14.6615V14.6615Z" fill="#BCBCBC"/>
<path d="M12.9639 14.7702C12.9657 14.7319 12.9645 14.5043 12.9639 14.7702V14.7702Z" fill="#BCBCBC"/>
<path d="M12.957 14.4931C12.8936 10.4936 12.3712 9.35401 8.37414 8.63263C8.37414 8.63263 7.81149 9.34959 6.50006 9.34959C5.18864 9.34959 4.62589 8.63263 4.62589 8.63263C0.672416 9.34614 0.118313 10.4689 0.0454559 14.3632C0.0394817 14.6812 0.0367131 14.6979 0.0356445 14.661C0.0358874 14.7301 0.0361787 14.8581 0.0361787 15.0812C0.0361787 15.0812 0.98779 16.9995 6.50006 16.9995C12.0122 16.9995 12.964 15.0812 12.964 15.0812C12.964 14.9378 12.9641 14.8382 12.9642 14.7704C12.9631 14.7932 12.961 14.7489 12.957 14.4931Z" fill="#BCBCBC"/>
</svg>
